PathFileType	4	(X/Y/Z)	C:/Users/opensim2020/Desktop/walking_exp_matlab/subject06_walking16_straight_03.trc																																																																																																																																																							
DataRate	CameraRate	NumFrames	NumMarkers	Units	OrigDataRate	OrigDataStartFrame	OrigNumFrames																																																																																																																																																			
100	100	6	51	mm	100	3035	283																																																																																																																																																			
Frame#	Time	LFHD			RFHD			LBHD			RBHD			C7			T10			CLAV			STRN			RBAK			LSHO			LUPA			LELB			LFRM			LWRA			LWRB			LFIN			RSHO			RUPA			RELB			RFRM			RWRA			RWRB			RFIN			LASI			RASI			LPSI			RPSI			LTHI			LKNE			LTIB			LANK			LHEE			LTOE			RTHI			RKNE			RTIB			RANK			RHEE			RTOE			*39			*40			*41			*42			*43			*44			*45			*46			*47			*48			*49			*50		
		X1	Y1	Z1	X2	Y2	Z2	X3	Y3	Z3	X4	Y4	Z4	X5	Y5	Z5	X6	Y6	Z6	X7	Y7	Z7	X8	Y8	Z8	X9	Y9	Z9	X10	Y10	Z10	X11	Y11	Z11	X12	Y12	Z12	X13	Y13	Z13	X14	Y14	Z14	X15	Y15	Z15	X16	Y16	Z16	X17	Y17	Z17	X18	Y18	Z18	X19	Y19	Z19	X20	Y20	Z20	X21	Y21	Z21	X22	Y22	Z22	X23	Y23	Z23	X24	Y24	Z24	X25	Y25	Z25	X26	Y26	Z26	X27	Y27	Z27	X28	Y28	Z28	X29	Y29	Z29	X30	Y30	Z30	X31	Y31	Z31	X32	Y32	Z32	X33	Y33	Z33	X34	Y34	Z34	X35	Y35	Z35	X36	Y36	Z36	X37	Y37	Z37	X38	Y38	Z38	X39	Y39	Z39	X40	Y40	Z40	X41	Y41	Z41	X42	Y42	Z42	X43	Y43	Z43	X44	Y44	Z44	X45	Y45	Z45	X46	Y46	Z46	X47	Y47	Z47	X48	Y48	Z48	X49	Y49	Z49	X50	Y50	Z50	X51	Y51	Z51
																																																																																																																																																										
213	2.12	728.55243	1670.71252	-1084.49316	712.45721	1653.70813	-954.85059	597.61359	1616.26062	-1104.61304	582.88	1604.06982	-976.58771	589.57458	1455.68237	-1050.2113	555.58142	1126.92493	-1043.52551	700.28601	1378.14026	-1043.33228	739.54803	1202.52039	-1050.69116	512.9989	1284.80676	-976.3197	653.81506	1412.11646	-1207.16357	667.80347	1211.99744	-1285.98572	674.01288	1100.20325	-1302.61951	725.91187	959.30603	-1325.95752	804.88501	857.94263	-1283.198	749.1933	842.05438	-1323.30554	806.95801	772.96887	-1326.60254	646.31104	1406.59766	-884.37579	607.90216	1203.26526	-807.17242	620.45538	1081.60059	-798.60681	633.64514	961.63818	-782.71497	693.15729	820.56879	-810.1095	635.8526	823.81604	-774.48938	670.50525	746.13324	-771.54352	737.09247	967.77661	-1147.52747	731.33282	973.15521	-926.49756	577.06482	993.6825	-1121.95496	579.57349	993.30188	-953.26257	680.02411	650.82947	-1198.33179	685.01471	487.8414	-1171.37769	637.25586	234.52019	-1158.28113	618.78595	65.05639	-1110.24341	575.32184	53.06601	-1066.4314	763.23285	35.49476	-1102.53149	741.34283	641.92603	-866.94495	781.49292	522.08923	-885.92603	631.94714	313.66638	-889.77057	513.84851	170.03448	-931.21509	468.43341	168.23238	-977.94458	619.67413	59.96778	-924.8985	621.55798	1705.99976	-1037.07507	NaN	NaN	NaN	NaN	NaN	NaN	NaN	NaN	NaN	NaN	NaN	NaN	NaN	NaN	NaN	NaN	NaN	NaN	NaN	NaN	NaN	NaN	NaN	NaN	NaN	NaN	NaN	NaN	NaN	NaN	NaN	NaN	NaN
214	2.13	737.32703	1670.48071	-1084.76257	720.94824	1653.46533	-955.18005	606.15045	1616.60437	-1105.11621	591.21912	1604.35486	-977.23389	597.55121	1455.69812	-1050.89856	563.49152	1126.92639	-1044.55176	708.1687	1378.15552	-1043.81787	747.34607	1202.52905	-1051.40027	520.82361	1284.8407	-977.41675	661.93976	1412.43164	-1207.7677	677.79205	1212.47205	-1286.68909	685.79797	1100.81665	-1303.68005	740.7301	961.16779	-1327.28027	821.76788	861.43951	-1284.24304	766.34534	844.24762	-1324.15466	825.77374	776.47717	-1327.57996	653.94495	1406.52283	-884.99707	614.62408	1203.33533	-807.69757	625.73993	1081.53113	-799.81342	637.64563	961.43542	-784.00726	694.53723	819.64453	-811.98553	637.94159	823.52448	-775.90955	671.34509	745.20099	-773.13757	744.25	967.34436	-1148.2699	739.20929	973.34277	-927.48053	584.711	993.73486	-1122.87	587.50525	993.59674	-954.1275	685.06726	650.51648	-1198.86023	688.01129	487.52396	-1172.30432	638.26544	234.33852	-1158.85425	618.93811	65.13135	-1110.20679	575.48041	53.26723	-1066.34766	763.36096	35.31285	-1102.65466	752.04321	643.18304	-867.76495	793.36853	523.9342	-887.42365	650.37054	310.03625	-890.59662	537.94708	161.86407	-931.89056	492.48059	157.86142	-978.67914	648.91595	57.23063	-924.93311	630.43951	1706.20081	-1037.45935	NaN	NaN	NaN	NaN	NaN	NaN	NaN	NaN	NaN	NaN	NaN	NaN	NaN	NaN	NaN	NaN	NaN	NaN	NaN	NaN	NaN	NaN	NaN	NaN	NaN	NaN	NaN	NaN	NaN	NaN	NaN	NaN	NaN
215	2.14	746.00494	1670.26892	-1085.00671	729.42572	1653.16968	-955.43713	614.68268	1616.83899	-1105.59998	599.49579	1604.53137	-977.74225	605.54407	1455.65283	-1051.56836	571.33038	1126.82935	-1045.46289	716.04822	1378.06714	-1044.33008	755.1911	1202.45459	-1052.13416	528.66266	1284.55176	-978.54767	669.95062	1412.52002	-1208.29565	687.77563	1213.01794	-1287.65759	697.40729	1101.36365	-1304.64087	754.93079	962.69391	-1328.01306	838.51917	865.06677	-1285.16663	783.31396	846.53656	-1324.79358	844.04089	779.95496	-1328.06128	661.6236	1406.3313	-885.5603	620.63605	1203.32385	-808.75494	631.01959	1081.35669	-800.91302	641.66504	961.17975	-785.1842	697.05804	818.78876	-813.24237	640.50958	823.15375	-777.26569	672.76025	744.37555	-774.68054	751.84998	967.02716	-1149.44006	747.74707	973.51776	-928.49902	592.40887	993.66351	-1123.72131	595.39691	993.79614	-954.88641	689.78418	650.16821	-1199.51184	690.88489	487.05042	-1172.99854	639.25751	234.24742	-1159.37134	619.03351	65.17356	-1110.20984	575.58521	53.5363	-1066.41003	763.43848	35.14214	-1102.80603	762.45056	644.41357	-868.45935	804.80988	525.58453	-888.72156	668.45862	306.30801	-891.3501	562.50464	153.47128	-932.61987	517.53387	147.01639	-979.31964	678.3291	54.47419	-924.52997	639.13293	1706.2843	-1037.80811	NaN	NaN	NaN	NaN	NaN	NaN	NaN	NaN	NaN	NaN	NaN	NaN	NaN	NaN	NaN	NaN	NaN	NaN	NaN	NaN	NaN	NaN	NaN	NaN	NaN	NaN	NaN	NaN	NaN	NaN	NaN	NaN	NaN
216	2.15	754.66052	1669.94958	-1085.22778	737.82343	1652.82983	-955.65717	623.2226	1616.97754	-1106.02551	607.73889	1604.5802	-978.14966	613.58142	1455.53748	-1052.0564	579.18805	1126.70728	-1046.20068	723.94482	1377.87903	-1044.74854	763.00024	1202.27002	-1052.797	536.47162	1284.33008	-979.50079	678.11554	1412.61243	-1208.83691	697.39984	1213.23035	-1288.18848	708.81287	1101.83252	-1305.53894	769.24609	964.40039	-1328.9541	855.04492	868.77069	-1285.89282	800.07013	848.82587	-1325.2262	862.4187	783.54034	-1328.448	669.23877	1406.01477	-886.04028	627.41272	1203.13	-809.22009	636.4801	1081.15515	-801.8244	645.85278	960.85352	-786.19824	699.73822	817.87878	-814.48883	643.31384	822.80206	-778.49744	674.69604	743.5603	-776.11035	758.95276	966.38348	-1150.19202	755.75452	973.47949	-929.39307	599.83179	993.52026	-1124.36157	603.48236	993.86218	-955.59174	694.65002	649.78687	-1199.98621	693.72833	486.50247	-1173.47229	640.44922	234.28094	-1159.82837	619.18561	65.21645	-1110.25452	576.03662	53.76011	-1066.58154	763.51135	35.0052	-1102.96399	772.69763	645.47833	-868.99652	815.76477	527.01886	-889.79486	686.30847	302.57556	-892.25513	587.39148	145.11028	-933.44531	542.93744	136.0088	-980.4649	707.85504	51.88869	-924.29761	647.81519	1706.26404	-1038.14661	NaN	NaN	NaN	NaN	NaN	NaN	NaN	NaN	NaN	NaN	NaN	NaN	NaN	NaN	NaN	NaN	NaN	NaN	NaN	NaN	NaN	NaN	NaN	NaN	NaN	NaN	NaN	NaN	NaN	NaN	NaN	NaN	NaN
217	2.16	763.24573	1669.62842	-1085.34277	746.13544	1652.4281	-955.84711	631.66278	1617.0105	-1106.41479	615.98761	1604.56409	-978.5943	621.70746	1455.41309	-1052.63293	587.10413	1126.54736	-1046.97192	731.86414	1377.66028	-1045.19312	770.80322	1202.07263	-1053.5304	544.25916	1284.07422	-980.41797	686.25592	1412.60156	-1209.30127	707.00763	1213.47498	-1288.84167	719.99084	1102.21411	-1306.34863	783.19977	965.97351	-1329.56189	871.31989	872.53589	-1286.40137	816.67957	851.15491	-1325.47144	880.41882	787.29169	-1328.52856	676.95197	1405.672	-886.49683	633.27972	1202.86816	-810.18091	641.98132	1080.88513	-802.74207	650.10339	960.5257	-787.11182	702.73755	817.07751	-815.57837	646.36798	822.50134	-779.5462	676.99884	742.914	-777.43188	766.52704	965.89117	-1151.48828	763.91559	973.43378	-930.43079	607.28253	993.35474	-1124.91821	611.54651	993.96246	-956.08392	699.46338	649.4317	-1200.41162	696.75153	486.19073	-1174.25916	641.69196	234.14435	-1160.12878	619.37	65.31628	-1110.26453	576.10321	54.01992	-1066.59241	763.56134	34.94744	-1103.03882	782.6983	646.4278	-869.36713	826.18158	528.25366	-890.77948	704.06573	298.77505	-892.97772	612.85309	136.62863	-934.23999	569.19104	125.30799	-981.51422	737.78601	49.72449	-923.88696	656.39282	1706.18567	-1038.38501	NaN	NaN	NaN	NaN	NaN	NaN	NaN	NaN	NaN	NaN	NaN	NaN	NaN	NaN	NaN	NaN	NaN	NaN	NaN	NaN	NaN	NaN	NaN	NaN	NaN	NaN	NaN	NaN	NaN	NaN	NaN	NaN	NaN
218	2.17	771.73657	1669.30554	-1085.44312	754.41565	1652.02649	-956.00256	640.07758	1616.97205	-1106.77344	624.18152	1604.46741	-978.9538	629.78735	1455.2406	-1053.0564	594.99579	1126.34558	-1047.6897	739.84497	1377.3584	-1045.61462	778.65558	1201.75012	-1054.18286	552.07495	1283.91992	-981.20703	694.53412	1412.52832	-1209.77405	716.56677	1213.59351	-1289.39795	730.96771	1102.49731	-1307.02405	796.79169	967.48859	-1329.78284	887.31287	876.31921	-1286.73755	833.06921	853.41461	-1325.35278	897.67694	790.776	-1328.05469	684.65436	1405.21106	-886.85938	639.73462	1202.59155	-810.78802	647.57507	1080.55615	-803.52942	654.77905	960.15747	-787.94855	706.08594	816.22821	-816.63245	649.75092	822.06348	-780.61151	679.95837	742.26343	-778.59442	773.52252	965.24994	-1152.3241	772.21893	973.32428	-931.43665	614.56226	993.216	-1125.25525	619.99945	993.95154	-956.52246	704.24695	649.03156	-1200.79065	699.79486	485.77393	-1174.73071	643.25366	234.17975	-1160.21387	619.54938	65.43443	-1110.27429	576.28705	54.20871	-1066.55432	763.59827	34.87731	-1103.10986	792.61206	647.19781	-869.43091	836.10144	529.21442	-891.6344	721.56567	295.00433	-893.90948	638.67981	128.40839	-935.0777	596.11981	114.74868	-982.51733	767.53674	47.74315	-923.3396	664.8902	1706.0459	-1038.62366	NaN	NaN	NaN	NaN	NaN	NaN	NaN	NaN	NaN	NaN	NaN	NaN	NaN	NaN	NaN	NaN	NaN	NaN	NaN	NaN	NaN	NaN	NaN	NaN	NaN	NaN	NaN	NaN	NaN	NaN	NaN	NaN	NaN
